<svg width="383" height="383" viewBox="0 0 383 383" fill="none" xmlns="http://www.w3.org/2000/svg">
<path d="M87.3975 152.263C90.0699 153.194 92.6125 154.133 95.2007 154.972C100.733 156.752 106.236 158.648 111.847 160.17C118.446 161.961 125.233 163.087 131.771 165.08C141.308 167.98 150.62 171.617 160.147 174.513C167.436 176.725 175.005 178.039 182.309 180.204C187.818 181.838 193.128 184.165 198.502 186.249C199.081 186.472 199.489 187.398 200.026 187.437C212.084 188.388 221.79 196.091 233.314 198.911C241.784 200.983 249.604 205.679 257.725 209.208C258.627 209.596 259.573 210.286 260.472 210.229C271.439 209.603 278.958 218.323 288.76 220.585C296.042 222.265 301.874 226.468 308.155 229.928C309.913 230.9 311.266 232.611 313.084 234.229C308.184 238.262 303.646 237.792 298.666 236.342C290.343 233.908 281.671 232.538 273.532 229.638C262.01 225.537 250.967 220.09 239.471 215.914C229.196 212.185 218.51 209.605 208.156 206.102C202.861 204.31 197.945 201.4 192.703 199.393C188.088 197.626 183.286 196.333 178.519 195C171.436 193.019 164.258 191.344 157.234 189.192C154.671 188.405 152.549 186.257 150 185.369C145.392 183.763 140.507 182.95 135.947 181.266C130.204 179.148 124.804 176.048 118.997 174.204C114.078 172.638 108.786 172.266 104.394 171.498C112.94 180.798 121.59 190.527 130.609 199.896C135.311 204.786 140.697 209.025 145.717 213.612C146.929 214.723 148.251 215.883 148.952 217.303C149.586 218.583 150.034 220.581 149.456 221.661C148.856 222.776 146.587 224.061 145.605 223.718C140.887 222.032 136.024 220.337 131.851 217.665C127.126 214.631 123.144 210.469 118.726 206.917C109.87 199.817 100.791 192.989 92.1464 185.645C89.3824 183.305 87.9031 179.528 85.4939 176.687C81.1022 171.482 75.7336 166.953 72.0818 161.296C65.5245 151.153 68.0572 141.181 81.4812 139.399C83.0242 139.196 84.4562 138.308 85.971 137.851C90.328 136.531 94.6915 135.192 99.094 134.016C101.862 133.275 104.689 132.789 107.499 132.232C114.913 130.771 122.378 129.528 129.732 127.813C135.16 126.549 140.43 124.615 145.808 123.101C148.354 122.389 151.096 121.237 153.539 121.612C156.082 122.001 159.042 123.445 160.625 125.405C162.939 128.277 160.393 130.143 157.78 131.382C152.814 133.718 147.833 136.038 142.874 138.387C140.694 139.417 138.643 140.926 136.355 141.473C133.087 142.251 129.645 142.344 126.291 142.731C125.011 142.878 123.439 142.648 122.494 143.293C116.831 147.176 110.32 147.353 103.884 148.107C101.885 148.342 100.009 149.531 98.0163 150.023C94.7351 150.838 91.4031 151.435 87.3942 152.272L87.3975 152.263Z" fill="#C2FF13"/>
</svg>
